<svg xmlns="http://www.w3.org/2000/svg" xmlns:xlink="http://www.w3.org/1999/xlink" width="265.815" height="96.803" viewBox="0 0 265.815 96.803">
  <defs>
    <linearGradient id="linear-gradient" y1="0.643" x2="1" y2="0.663" gradientUnits="objectBoundingBox">
      <stop offset="0" stop-color="#00b6e5"/>
      <stop offset="1" stop-color="#7956c1"/>
    </linearGradient>
  </defs>
  <path id="Logo_Neeb" d="M22.5,53.587,20.025,88.035a6.973,6.973,0,0,1-.206,1,1.311,1.311,0,0,1-.8.824q-.53.236-1.826.736t-3.033,1.148q-1.737.648-3.651,1.325T6.891,94.307q-1.708.559-3.033.913a8.689,8.689,0,0,1-1.8.354A2.283,2.283,0,0,1,.589,95.1,2.085,2.085,0,0,1,0,93.394q.589-7.361,1.355-16.046T2.827,59.534q.707-9.127,1.325-18.225T5.183,24.026a6.4,6.4,0,0,0-.736-1.56Q3.711,21.14,2.8,19.58T1.148,16.636A5.809,5.809,0,0,1,.412,14.9a.992.992,0,0,1,.442-.766A13.232,13.232,0,0,1,2.3,13.191L18.022,4.3a3,3,0,0,0,.5-.059,3.2,3.2,0,0,1,.56-.059,2.942,2.942,0,0,1,1.031.147,1.884,1.884,0,0,1,.8.913L49.473,56.767V12.661A22.9,22.9,0,0,1,50.3,9.834a2.036,2.036,0,0,1,1.531-1.178L67.083,5.064a4.81,4.81,0,0,1,1.531-.236,1.248,1.248,0,0,1,1.119.53,3.925,3.925,0,0,1,.353,2,29.08,29.08,0,0,0-.589,4.328q-.236,2.915-.353,6.389t-.177,6.978q-.059,3.5-.059,6.095V34.39q0,3.651-.059,7.95T68.7,51.055q-.089,4.417-.206,8.715t-.236,8.067l-.353,10.07a2.711,2.711,0,0,0-.059.53v1.355q0,1,.029,1.678t.03,1.207a5.793,5.793,0,0,1-.088,1.06,2.073,2.073,0,0,1-.442.913,5.522,5.522,0,0,1-.972.913q-.619.471-1.679,1.178-.589.412-1.943,1.207t-3,1.8q-1.649,1-3.416,2.061t-3.239,1.914L50.74,95.1l-.913.53Zm133.56,41.427c-1.734-.256-3.553-.616-5.407-1.069s-3.7-.962-5.5-1.514-3.415-1.131-4.812-1.722a23.643,23.643,0,0,1-3.416-1.722c-.889-.566-3.808-2.605-4.081-3.2-.195.449-2.3,1.725-3.564,2.488l0,0c-.313.189-.583.352-.751.459a23.679,23.679,0,0,1-3.414,1.722c-1.4.591-3.016,1.17-4.809,1.722s-3.638,1.06-5.492,1.514-3.671.813-5.4,1.069a31.927,31.927,0,0,1-4.572.386A35.616,35.616,0,0,1,92.4,92.918a34.286,34.286,0,0,1-5.685-2.709,32.808,32.808,0,0,1-5-3.673,30.248,30.248,0,0,1-4.193-4.6,32.659,32.659,0,0,1-3.258-5.492,28.354,28.354,0,0,1-1.887-5.394,32.887,32.887,0,0,1-.85-5.945l30.849,6.71a6.252,6.252,0,0,0,1.124.244L123.458,76.4a10.771,10.771,0,0,0,19.215-.024l51.3-11.147a32.962,32.962,0,0,1-.843,6.016,28.333,28.333,0,0,1-1.9,5.453,32.625,32.625,0,0,1-3.26,5.492,30.247,30.247,0,0,1-4.2,4.6,32.838,32.838,0,0,1-5.006,3.674,34.336,34.336,0,0,1-5.689,2.709A35.665,35.665,0,0,1,160.633,95.4,31.968,31.968,0,0,1,156.058,95.014Zm70.3-2.8a36.291,36.291,0,0,1-8.422-6.242q-.118,1.414-.177,2.238a2.418,2.418,0,0,1-.383,1.266,2.2,2.2,0,0,1-.972.707,13.245,13.245,0,0,1-1.943.559q-.648.177-2.268.559t-3.887.883q-2.267.5-5.006,1.089t-5.566,1.178a6.576,6.576,0,0,1-1.3.177q-1.885,0-1.885-2.238,0-.295.029-.589t.088-.648L201.5,7.832a2.149,2.149,0,0,1,.029-.353,1.824,1.824,0,0,0,.03-.294,2.5,2.5,0,0,0-.03-.412,1.854,1.854,0,0,1-.029-.295,1.063,1.063,0,0,1,.383-.854,6.081,6.081,0,0,1,1.973-.736L220.407.942a9.879,9.879,0,0,0,1.708-.53A5.669,5.669,0,0,1,224.176,0a3.076,3.076,0,0,1,1.443.353,1.383,1.383,0,0,1,.677,1.354.968.968,0,0,1-.029.236.973.973,0,0,0-.03.236q-.059.294-.294,2.591t-.53,5.565q-.295,3.268-.648,7.007t-.648,7.007q-.294,3.268-.53,5.565t-.295,2.591a53.893,53.893,0,0,1,8.893-4.74,23.727,23.727,0,0,1,9.188-1.914,20.926,20.926,0,0,1,10.484,2.5,21.976,21.976,0,0,1,7.3,6.654,29.3,29.3,0,0,1,4.27,9.569,45.025,45.025,0,0,1,1.384,11.189,52.682,52.682,0,0,1-3.328,18.313,41.957,41.957,0,0,1-4.064,8.068,31.319,31.319,0,0,1-5.6,6.536,24.849,24.849,0,0,1-7.038,4.358,22.035,22.035,0,0,1-8.422,1.59A20.967,20.967,0,0,1,226.355,92.216Zm.589-48.4a19.655,19.655,0,0,0-5.36,5.712l-1.944,22.848a10.864,10.864,0,0,0,1.679,2.385,14.6,14.6,0,0,0,2.533,2.208A13.66,13.66,0,0,0,227,78.584a10.31,10.31,0,0,0,3.534.618,7.113,7.113,0,0,0,4.771-1.972,17.407,17.407,0,0,0,3.917-5.3,32.264,32.264,0,0,0,2.621-7.6,41.019,41.019,0,0,0,.942-8.863,27.592,27.592,0,0,0-.5-5.359,14.824,14.824,0,0,0-1.561-4.417,8.614,8.614,0,0,0-2.739-3,7.1,7.1,0,0,0-4.034-1.119A11.914,11.914,0,0,0,226.944,43.812ZM123.71,66.316,71.5,64.518c-.018-.473-.027-.955-.027-1.434a41.9,41.9,0,0,1,.668-7.533,38.043,38.043,0,0,1,2-7.043,37.507,37.507,0,0,1,3.213-6.36,35.067,35.067,0,0,1,4.3-5.485,34.4,34.4,0,0,1,5.307-4.512A36.854,36.854,0,0,1,93.2,28.707a34.484,34.484,0,0,1,7.051-2.182,40.162,40.162,0,0,1,7.733-.727,26.786,26.786,0,0,1,5.381.527,22.669,22.669,0,0,1,4.861,1.581,28.088,28.088,0,0,1,4.275,2.419,25.256,25.256,0,0,1,6.539,6.6,23.905,23.905,0,0,1,2.16,3.956,22.1,22.1,0,0,1,1.547,5.3,22.249,22.249,0,0,1,1.506-5.04,23.888,23.888,0,0,1,2.161-3.956,25.274,25.274,0,0,1,6.543-6.6,28.122,28.122,0,0,1,4.278-2.419A22.684,22.684,0,0,1,152.1,26.58a26.816,26.816,0,0,1,5.384-.527,40.214,40.214,0,0,1,7.739.727,34.515,34.515,0,0,1,7.055,2.182,36.9,36.9,0,0,1,6.246,3.444,34.424,34.424,0,0,1,5.31,4.512,35.086,35.086,0,0,1,4.3,5.485,37.526,37.526,0,0,1,3.216,6.36,38.058,38.058,0,0,1,2.005,7.043,41.893,41.893,0,0,1,.668,7.533c0,.4-.006.8-.018,1.2l-51.6,1.775a10.774,10.774,0,0,0-6.936-5.147l-2.359-11.332-2.325,11.3a10.756,10.756,0,0,0-7.076,5.181h0Zm31.962-24.083a10.434,10.434,0,0,0-2.584,1.1,7.91,7.91,0,0,0-1.99,1.662,3.1,3.1,0,0,0-.8,2.019,3.752,3.752,0,0,0,1.01,2.345,10.773,10.773,0,0,0,3.446,2.434,40.5,40.5,0,0,0,6.476,2.4,95.18,95.18,0,0,0,10.16,2.256,31.645,31.645,0,0,0-2.02-5.967,19.226,19.226,0,0,0-2.941-4.631,12.584,12.584,0,0,0-3.743-2.969,9.827,9.827,0,0,0-4.486-1.039A9.621,9.621,0,0,0,155.672,42.232Zm-52.882.4A12.563,12.563,0,0,0,99.05,45.6a19.2,19.2,0,0,0-2.939,4.631A31.669,31.669,0,0,0,94.092,56.2a95.016,95.016,0,0,0,10.153-2.256,40.437,40.437,0,0,0,6.472-2.4,10.769,10.769,0,0,0,3.444-2.434,3.751,3.751,0,0,0,1.009-2.345,3.1,3.1,0,0,0-.8-2.019,7.9,7.9,0,0,0-1.989-1.662,10.409,10.409,0,0,0-2.583-1.1,9.61,9.61,0,0,0-2.523-.386A9.811,9.811,0,0,0,102.79,42.63Z" transform="translate(0.5 0.5)" stroke="rgba(0,0,0,0)" stroke-miterlimit="10" stroke-width="1" fill="url(#linear-gradient)"/>
</svg>
